<?xml version="1.0" encoding="utf-8"?>
<!-- Generator: Adobe Illustrator 23.0.3, SVG Export Plug-In . SVG Version: 6.00 Build 0)  -->
<svg version="1.1" id="Layer_1" xmlns="http://www.w3.org/2000/svg" xmlns:xlink="http://www.w3.org/1999/xlink" x="0px" y="0px"
	 viewBox="0 0 100 100" style="enable-background:new 0 0 100 100;" xml:space="preserve">
<style type="text/css">
</style>
<circle  cx="50" cy="55" r="16"/>
<path  d="M35,5l-9.1,10H10C4.5,15,0,19.5,0,25v60c0,5.5,4.5,10,10,10h80c5.5,0,10-4.5,10-10V25c0-5.5-4.5-10-10-10H74.2
	L65,5H35z M50,80c-13.8,0-25-11.2-25-25s11.2-25,25-25s25,11.2,25,25S63.8,80,50,80z"/>
</svg>
