<?xml version="1.0" encoding="utf-8"?>
<!-- Generator: Adobe Illustrator 23.0.3, SVG Export Plug-In . SVG Version: 6.00 Build 0)  -->
<svg version="1.1" id="Layer_1" xmlns="http://www.w3.org/2000/svg" xmlns:xlink="http://www.w3.org/1999/xlink" x="0px" y="0px"
	 viewBox="0 0 100 100" style="enable-background:new 0 0 100 100;" xml:space="preserve">
<style type="text/css">
</style>
<g>
	<g>
		<path  d="M96.1,56.9c2.2,0,3.9-1.7,3.9-3.9V27.4c0-8.6-7-15.6-15.6-15.6H15.6C7,11.8,0,18.8,0,27.4v45.1
			c0,8.6,7,15.6,15.6,15.6h68.8c8.6,0,15.6-7,15.6-15.6c0-2.2-1.7-3.9-3.9-3.9s-3.9,1.7-3.9,3.9c0,4.3-3.5,7.8-7.8,7.8H15.6
			c-4.3,0-7.8-3.5-7.8-7.8V28.3l33.9,21.1c2.5,1.6,5.4,2.4,8.3,2.4s5.7-0.8,8.3-2.4l33.9-21.1V53C92.2,55.2,93.9,56.9,96.1,56.9z
			 M54.1,42.7c-2.5,1.6-5.7,1.6-8.3,0L11.1,21.1c1.3-0.9,2.9-1.5,4.6-1.5h68.8c1.7,0,3.3,0.5,4.6,1.5L54.1,42.7z"/>
	</g>
</g>
</svg>
