<?xml version="1.0" encoding="utf-8"?>
<!-- Generator: Adobe Illustrator 23.0.3, SVG Export Plug-In . SVG Version: 6.00 Build 0)  -->
<svg version="1.1" id="Layer_1" xmlns="http://www.w3.org/2000/svg" xmlns:xlink="http://www.w3.org/1999/xlink" x="0px" y="0px"
	 viewBox="0 0 100 100" style="enable-background:new 0 0 100 100;" xml:space="preserve">
<style type="text/css">
</style>
<g>
	<g>
		<circle  cx="71.1" cy="27.3" r="6.3"/>
	</g>
</g>
<g>
	<g>
		<path  d="M98.9,32.4c-2.1-5.3-5.9-13-12.3-19.3C80.3,6.8,72.7,3,67.5,1c-5.8-2.2-12.3-0.8-16.7,3.5L35.5,19.8
			c-4.5,4.5-5.9,11.5-3.3,17.3c0.8,1.8,1.7,3.6,2.6,5.3L1.1,76.1C0.4,76.9,0,77.9,0,78.9v17.2c0,2.2,1.7,3.9,3.9,3.9h17.2
			c2.2,0,3.9-1.7,3.9-3.9v-7l7,0c2.2,0,3.9-1.7,3.9-3.9v-7h7c2.2,0,3.9-1.7,3.9-3.9c0-2.2-1.7-3.9-3.9-3.9H32
			c-2.2,0-3.9,1.7-3.9,3.9v7l-7,0c-2.2,0-3.9,1.7-3.9,3.9v7H7.8V80.5l34.6-34.6c1.3-1.3,1.5-3.3,0.6-4.8c-1.4-2.2-2.6-4.6-3.7-7.1
			c-1.3-2.9-0.6-6.4,1.6-8.6l15.3-15.3c2.2-2.2,5.5-2.9,8.4-1.8c4.5,1.7,11.1,4.9,16.5,10.3c5.4,5.4,8.7,12,10.5,16.6
			c1.1,2.9,0.4,6.2-1.8,8.3L74.4,59.1c-2.3,2.3-5.6,2.9-8.6,1.7c-2.4-1-4.8-2.2-7-3.6c-1.8-1.1-4.2-0.6-5.4,1.3
			c-1.1,1.8-0.6,4.2,1.3,5.4c2.6,1.6,5.3,3,8.1,4.1c5.9,2.4,12.6,1.1,17.1-3.4l15.5-15.5C99.8,44.8,101.2,38.2,98.9,32.4z"/>
	</g>
</g>
</svg>
