<?xml version="1.0" encoding="utf-8"?>
<!-- Generator: Adobe Illustrator 23.0.3, SVG Export Plug-In . SVG Version: 6.00 Build 0)  -->
<svg version="1.1" id="Layer_1" xmlns="http://www.w3.org/2000/svg" xmlns:xlink="http://www.w3.org/1999/xlink" x="0px" y="0px"
	 viewBox="0 0 100 100" style="enable-background:new 0 0 100 100;" xml:space="preserve">
<style type="text/css">
</style>
<g>
	<g>
		<path  d="M94.1,5.9C90.4,2.1,85.3,0,80,0S69.6,2.1,65.8,5.9L9.9,61.8c-0.5,0.5-0.8,1.1-1,1.7L0.1,95
			c-0.4,1.4,0,2.8,1,3.8c0.7,0.7,1.7,1.1,2.8,1.1c0.4,0,0.7,0,1.1-0.1l31.6-9c1.3-0.4,2.4-1.4,2.7-2.8c0.3-1.3,0-2.8-1-3.7l-19.9-20
			l46.4-46.4l17.2,17.2L46.4,70.7c-1.5,1.5-1.5,4,0,5.5c1.5,1.5,4,1.5,5.5,0l42.2-42.1c3.8-3.8,5.9-8.8,5.9-14.1S97.9,9.6,94.1,5.9z
			 M28,85.2L9.5,90.4l5.2-18.6L28,85.2z M88.6,28.6l-1.2,1.2L70.2,12.5l1.2-1.2c2.3-2.3,5.4-3.6,8.6-3.6s6.3,1.3,8.6,3.6
			c2.3,2.3,3.6,5.4,3.6,8.6S90.9,26.3,88.6,28.6z"/>
	</g>
</g>
</svg>
