<?xml version="1.0" encoding="utf-8"?>
<!-- Generator: Adobe Illustrator 23.0.3, SVG Export Plug-In . SVG Version: 6.00 Build 0)  -->
<svg version="1.1" id="Layer_1" xmlns="http://www.w3.org/2000/svg" xmlns:xlink="http://www.w3.org/1999/xlink" x="0px" y="0px"
	 viewBox="0 0 100 100" style="enable-background:new 0 0 100 100;" xml:space="preserve">
<style type="text/css">
</style>
<g>
	<g>
		<path d="M94.5,64.7c0.5,0.7,1.4,1.1,2.3,1.1c1.8,0,3.1-1.4,3.1-3.1V21.9c-0.1-1.8-1.2-3-2.9-3H70.6V16
			c0-4.9-4-8.9-8.7-8.9H38.4c-4.9,0-8.9,4-8.9,8.9v2.9H3.1C1.4,18.9,0,20.3,0,22v64.2c0,5,4,8.8,8.7,8.8H91c4.9,0,8.9-3.8,8.9-8.7
			V81c0-1.6-1.4-3-3-3c-1.8,0-3.1,1.4-3.1,3.1v5.2c0,1.6-1.2,2.9-2.9,2.9H9.2c-1.5,0.1-2.9-1.2-2.9-2.7v-46l4.5,13.4
			c1.2,3.6,4.6,6,8.3,6h16.3v2.9c0,1.8,1.4,3.1,3.1,3.1h23.4c1.8,0,3.1-1.4,3.1-3.1v-2.9h16.3c3.8,0,7.2-2.5,8.3-6l4.5-13.4v22.1
			C93.8,63.3,94.1,64.1,94.5,64.7z M35.7,16c0-1.6,1.2-2.9,2.9-2.9H62c1.5,0,2.9,1.4,2.9,2.9v2.9H35.7V16z M41.4,59.7v-5.6h17.3v5.6
			H41.4z M83.6,51.9c-0.4,1.1-1.5,1.9-2.6,1.9H64.9V51c0-1.8-1.4-3.1-3.1-3.1H38.4c-1.8,0-3.1,1.4-3.1,3.1v2.9H19
			c-1.2,0-2.3-0.8-2.6-1.9L7.5,25h85.2L83.6,51.9z"/>
	</g>
</g>
</svg>
