<svg xmlns="http://www.w3.org/2000/svg" width="30.393" height="29.387" viewBox="0 0 30.393 29.387">
  <g id="bottomHome" transform="translate(0.363 0.45)" opacity="0.5">
    <g id="Group_1273" data-name="Group 1273" transform="translate(0 0)">
      <path id="Path_176" data-name="Path 176" d="M29.831,15.84a.976.976,0,0,1-.268.655.9.9,0,0,1-1.28,0L27,15.215v4.851a.991.991,0,0,1-.982.982.954.954,0,0,1-.982-.982V13.281l-9.2-9.2a1.326,1.326,0,0,0-1.786.03L4.981,13.221l-.03.089V25.959A2.651,2.651,0,0,0,7.54,28.548h3.333V18.7a.936.936,0,0,1,.893-.982h6.458a.991.991,0,0,1,.982.982v9.881h3.155a2.536,2.536,0,0,0,2.589-2.589.982.982,0,1,1,1.964,0,4.471,4.471,0,0,1-4.494,4.494H18.254a.991.991,0,0,1-.982-.982V19.65H12.689V29.53a.991.991,0,0,1-.982.982H7.481a4.471,4.471,0,0,1-4.494-4.494V15.275l-1.28,1.28a.971.971,0,0,1-1.339,0,1.009,1.009,0,0,1,0-1.369l12.44-12.44a3.335,3.335,0,0,1,4.494,0l12.351,12.38A2.793,2.793,0,0,1,29.831,15.84Z" transform="translate(-0.1 -1.875)" fill="#fff" stroke="#fff" stroke-width="0.6"/>
    </g>
  </g>
</svg>
