<?xml version="1.0" encoding="utf-8"?>
<!-- Generator: Adobe Illustrator 25.2.1, SVG Export Plug-In . SVG Version: 6.00 Build 0)  -->
<svg version="1.1" id="Layer_1" xmlns="http://www.w3.org/2000/svg" xmlns:xlink="http://www.w3.org/1999/xlink" x="0px" y="0px"
	 viewBox="0 0 255.3 61" style="enable-background:new 0 0 255.3 61;" xml:space="preserve">
<style type="text/css">
	.authstLogo000{fill:#3F5061;}
	.authstLogo001{fill:#d64f4f;}
</style>
<g>
	<g>
		<path class="authstLogo000" d="M32.8,29.5c-0.7-1.4-1.5-2.7-2.6-3.7c-1.1-1-2.3-1.8-3.6-2.5c-1.4-0.7-2.8-1.2-4.2-1.7s-2.8-1-4.2-1.4
			c-1.4-0.4-2.6-0.9-3.7-1.5c-1.1-0.6-1.9-1.2-2.6-2c-0.6-0.8-1-1.7-1-2.9c0-0.9,0.2-1.8,0.5-2.5c0.3-0.8,0.8-1.4,1.5-2
			c0.7-0.5,1.5-1,2.4-1.3c1-0.3,2.1-0.5,3.4-0.5c1.4,0,2.6,0.2,3.7,0.5c1,0.4,1.9,0.8,2.7,1.2c0.8,0.4,1.4,0.8,2,1.2
			c0.6,0.4,1.1,0.5,1.6,0.5c0.5,0,0.8-0.1,1.1-0.3c0.3-0.2,0.6-0.6,0.9-1l2.3-4.3c-1.7-1.6-3.8-2.9-6.3-3.8
			c-2.5-0.9-5.1-1.4-8.1-1.4c-2.6,0-4.9,0.4-6.9,1.2S7.9,3.3,6.6,4.6S4.2,7.5,3.4,9.2c-0.7,1.7-1.1,3.5-1.1,5.3c0,2.3,0.3,4.2,1,5.7
			C4,21.7,4.8,23,5.9,24c1.1,1,2.3,1.9,3.7,2.5c1.4,0.6,2.8,1.2,4.2,1.6c1.4,0.5,2.8,0.9,4.2,1.3c1.4,0.4,2.6,0.9,3.7,1.4
			s1.9,1.2,2.6,2.1c0.7,0.8,1,1.9,1,3.2c0,2.3-0.7,4.1-2.2,5.4c-1.4,1.2-3.5,1.9-6.1,1.9c-1.7,0-3.2-0.2-4.4-0.7
			c-1.2-0.5-2.3-1-3.2-1.5c-0.9-0.6-1.7-1.1-2.4-1.6c-0.7-0.5-1.3-0.7-1.9-0.7c-0.4,0-0.8,0.1-1.2,0.3c-0.4,0.2-0.7,0.5-0.9,0.8
			l-2.7,4.4c1,1,2.1,1.9,3.3,2.7s2.5,1.5,4,2c1.4,0.6,2.9,1,4.4,1.3c1.5,0.3,3.1,0.5,4.6,0.5c2.7,0,5.2-0.4,7.3-1.3
			c2.1-0.8,3.9-2,5.4-3.4c1.5-1.5,2.6-3.1,3.4-5.1c0.8-1.9,1.1-4,1.1-6.3C33.8,32.7,33.5,31,32.8,29.5z"/>
		<path class="authstLogo000" d="M65.6,41.9c-0.3-0.5-0.9-0.8-1.5-0.8c-0.5,0-1,0.2-1.4,0.5c-0.4,0.3-0.9,0.7-1.5,1.1
			c-0.6,0.4-1.3,0.8-2.1,1.1c-0.8,0.3-1.9,0.5-3.3,0.5c-1.3,0-2.5-0.3-3.6-0.8c-1.1-0.5-2-1.3-2.7-2.3c-0.8-1-1.3-2.2-1.7-3.7
			c-0.4-1.5-0.6-3.1-0.6-5c0-1.8,0.2-3.4,0.5-4.8c0.4-1.4,0.9-2.6,1.7-3.6c0.7-1,1.7-1.8,2.8-2.3c1.1-0.5,2.4-0.8,3.9-0.8
			c1.2,0,2.1,0.1,2.9,0.4c0.8,0.3,1.5,0.6,2,0.9s1.1,0.6,1.5,0.9c0.4,0.3,0.8,0.4,1.3,0.4c0.5,0,0.8-0.1,1-0.3
			c0.2-0.2,0.5-0.4,0.7-0.8l2.2-3.1c-1.6-1.6-3.4-2.8-5.3-3.6c-2-0.8-4.3-1.3-6.9-1.3c-2.8,0-5.2,0.5-7.3,1.4
			c-2.1,0.9-3.9,2.2-5.3,3.8c-1.4,1.6-2.5,3.5-3.3,5.7c-0.7,2.2-1.1,4.6-1.1,7.2c0,2.9,0.4,5.4,1.2,7.7c0.8,2.2,2,4.1,3.4,5.7
			c1.4,1.5,3.1,2.7,5,3.5c1.9,0.8,4,1.2,6.1,1.2c1.2,0,2.5-0.1,3.7-0.3c1.2-0.2,2.5-0.5,3.6-0.9c1.2-0.4,2.3-1,3.4-1.8
			c1.1-0.7,2.1-1.7,3-2.8L65.6,41.9z"/>
		<path class="authstLogo000" d="M104.3,25.2c-0.8-2.2-2-4.1-3.5-5.7c-1.5-1.5-3.3-2.7-5.5-3.6c-2.1-0.8-4.5-1.3-7.1-1.3c-2.6,0-5,0.4-7.1,1.3
			c-2.2,0.9-4,2-5.5,3.6c-1.5,1.5-2.7,3.5-3.5,5.7c-0.8,2.2-1.3,4.7-1.3,7.5c0,2.8,0.4,5.3,1.3,7.5c0.8,2.2,2,4.1,3.5,5.7
			c1.5,1.6,3.3,2.8,5.5,3.6c2.1,0.8,4.5,1.3,7.1,1.3c2.6,0,5-0.4,7.1-1.3c2.1-0.8,4-2,5.5-3.6c1.5-1.6,2.7-3.5,3.5-5.7
			c0.8-2.2,1.2-4.7,1.2-7.5C105.5,29.9,105.1,27.4,104.3,25.2z M94.7,41.3c-1.4,2-3.6,2.9-6.5,2.9c-3,0-5.1-1-6.6-3
			c-1.4-2-2.1-4.8-2.1-8.6s0.7-6.6,2.1-8.6c1.4-2,3.6-3,6.6-3c2.9,0,5.1,1,6.5,3c1.4,2,2.1,4.9,2.1,8.7
			C96.8,36.5,96.1,39.4,94.7,41.3z"/>
		<path class="authstLogo000" d="M129.2,14.5c-2.1,0-3.8,0.6-5.3,1.8c-1.5,1.2-2.8,2.8-3.9,4.9l-0.5-4c-0.1-0.8-0.3-1.4-0.7-1.7
			c-0.3-0.3-0.9-0.5-1.8-0.5h-5v35.1h8.5V28.6c0.4-0.9,0.8-1.8,1.3-2.5c0.4-0.7,0.9-1.3,1.5-1.9c0.6-0.5,1.2-0.9,2-1.2
			c0.7-0.3,1.6-0.4,2.5-0.4c0.6,0,1.3,0,2,0.2c0.7,0.1,1.2,0.2,1.5,0.2c0.4,0,0.6-0.1,0.9-0.3c0.2-0.2,0.4-0.5,0.5-0.9l0.5-6.3
			C132.1,14.9,130.8,14.5,129.2,14.5z"/>
		<path class="authstLogo000" d="M162.3,41.2c-0.5,0-1.1,0.2-1.6,0.5c-0.6,0.3-1.2,0.7-2,1.1c-0.8,0.4-1.6,0.7-2.6,1.1s-2.2,0.5-3.5,0.5
			s-2.6-0.2-3.8-0.6c-1.1-0.4-2.1-1.1-2.9-1.9c-0.8-0.8-1.5-1.9-2-3.3c-0.5-1.3-0.8-2.9-1-4.7h21.7c0.8,0,1.3-0.2,1.6-0.7
			c0.3-0.4,0.4-1.3,0.4-2.6c0-2.5-0.4-4.8-1.1-6.8c-0.8-2-1.8-3.6-3.2-5c-1.3-1.4-3-2.4-4.8-3.1c-1.9-0.7-3.9-1.1-6.1-1.1
			c-2.6,0-5,0.5-7.1,1.4c-2.1,0.9-3.8,2.1-5.3,3.7c-1.5,1.6-2.6,3.4-3.3,5.5c-0.8,2.1-1.2,4.4-1.2,6.8c0,3.1,0.4,5.8,1.3,8.1
			c0.9,2.3,2.1,4.3,3.7,5.9c1.5,1.6,3.4,2.8,5.5,3.6c2.1,0.8,4.4,1.2,6.8,1.2c1.2,0,2.5-0.1,3.8-0.3c1.3-0.2,2.6-0.5,3.9-0.9
			c1.3-0.4,2.5-1,3.6-1.8c1.2-0.7,2.2-1.7,3.1-2.8l-2.4-3.1C163.6,41.4,163,41.2,162.3,41.2z M145.9,22.8c1.4-1.4,3.3-2.1,5.8-2.1
			c1.3,0,2.3,0.2,3.3,0.6c0.9,0.4,1.7,1,2.3,1.7c0.6,0.7,1.1,1.6,1.4,2.5c0.3,1,0.5,2,0.5,3.1h-15.9
			C143.6,26.1,144.5,24.2,145.9,22.8z"/>
		<path class="authstLogo001" d="M252.9,24.8c-0.6-2.2-1.5-4.1-2.7-5.6c-1.2-1.5-2.5-2.7-4.1-3.5c-1.6-0.8-3.3-1.2-5.3-1.2
			c-2.5,0-4.6,0.5-6.4,1.5c-1.8,1-3.4,2.3-4.9,3.9l-0.7-3.3c-0.3-1-1.1-1.5-2.2-1.5h-13.1V0.8h-9.2v29.6c0,1.9-0.3,3.6-0.8,5.1
			c-0.5,1.5-1.3,2.8-2.2,3.9c-1,1.1-2.1,1.9-3.5,2.5c-1.4,0.6-3,0.9-4.8,0.9c-1.8,0-3.4-0.3-4.8-0.9c-1.4-0.6-2.6-1.4-3.6-2.5
			c-1-1.1-1.7-2.4-2.2-3.9c-0.5-1.5-0.8-3.2-0.8-5.1V0.8h-9.2v29.6c0,2.9,0.5,5.7,1.4,8.1c1,2.5,2.3,4.7,4.1,6.5
			c1.8,1.8,3.9,3.2,6.5,4.2c2.5,1,5.4,1.5,8.6,1.5c3.2,0,6-0.5,8.6-1.5c2.5-1,4.7-2.4,6.4-4.2c1.8-1.8,3.1-4,4.1-6.5
			c0.9-2.5,1.4-5.2,1.4-8.1V25h-5.2l4.4-4.7l0.8-0.9l3.9-4.2l4,4.3L222,20l4.6,5h-5v36.7h8.4V47.3c1.1,1.1,2.3,1.9,3.7,2.5
			c1.4,0.6,3.1,0.9,5,0.9c2.3,0,4.4-0.5,6.2-1.4c1.9-0.9,3.4-2.2,4.8-3.8c1.3-1.6,2.3-3.6,3-5.8c0.7-2.2,1.1-4.7,1.1-7.3
			C253.8,29.6,253.5,27,252.9,24.8z M244.5,37.7c-0.4,1.5-0.9,2.7-1.7,3.7c-0.7,1-1.6,1.7-2.6,2.2c-1,0.5-2.2,0.7-3.5,0.7
			c-1.3,0-2.6-0.2-3.7-0.7c-1.1-0.5-2.2-1.3-3.1-2.5V25.4c1.1-1.3,2.3-2.4,3.5-3.1c1.2-0.7,2.7-1.1,4.5-1.1c1.1,0,2.1,0.2,3,0.6
			c0.9,0.4,1.6,1.1,2.2,2c0.6,0.9,1.1,2,1.4,3.5c0.3,1.4,0.5,3.2,0.5,5.2C245.1,34.5,244.9,36.2,244.5,37.7z"/>
	</g>
</g>
</svg>
