<?xml version="1.0" encoding="utf-8"?>
<!-- Generator: Adobe Illustrator 23.0.3, SVG Export Plug-In . SVG Version: 6.00 Build 0)  -->
<svg version="1.1" id="Layer_1" xmlns="http://www.w3.org/2000/svg" xmlns:xlink="http://www.w3.org/1999/xlink" x="0px" y="0px"
	 viewBox="0 0 100 100" style="enable-background:new 0 0 100 100;" xml:space="preserve">
<style type="text/css">
</style>
<g>
	<g>
		<path d="M52.5,94.6c0.6,0.6,0.9,1.3,0.9,2.3c0,1.7-1.4,3.2-3.2,3.2H11.7C5.3,100,0,94.7,0,88.3V11.7
			C0,5.3,5.3,0,11.7,0h38.5c0.8,0,1.6,0.3,2.3,1c0.6,0.6,0.9,1.3,0.9,2.3c0,1.7-1.4,3.2-3.2,3.2H11.7c-3,0-5.3,2.3-5.3,5.3v76.6
			c0,3,2.3,5.3,5.3,5.3h38.5C50.9,93.6,51.8,93.9,52.5,94.6z"/>
	</g>
	<g>
		<path d="M100,50c0,0.8-0.3,1.6-1,2.3L73,78c-0.6,0.6-1.3,0.9-2.2,0.9c-0.9,0-1.7-0.4-2.4-1c-0.6-0.6-0.9-1.3-0.9-2.3
			c0-0.8,0.3-1.6,1-2.3L89,53.3H36.8c-1.8,0-3.2-1.4-3.2-3.2c0-0.9,0.3-1.7,0.9-2.3c0.6-0.6,1.4-1,2.2-1H89L68.6,26.7
			c-1.2-1.3-1.2-3.2,0-4.4c0.6-0.6,1.4-1,2.3-1c0.9,0,1.7,0.3,2.3,0.9l26,25.6C99.7,48.5,100,49.2,100,50z"/>
	</g>
</g>
</svg>
