<?xml version="1.0" encoding="utf-8"?>
<!-- Generator: Adobe Illustrator 24.3.0, SVG Export Plug-In . SVG Version: 6.00 Build 0)  -->
<svg version="1.1" id="Layer_1" xmlns="http://www.w3.org/2000/svg" xmlns:xlink="http://www.w3.org/1999/xlink" x="0px" y="0px"
	 viewBox="0 0 1315 270.9" style="enable-background:new 0 0 1315 270.9;" xml:space="preserve">
<style type="text/css">
	.st-matura0{fill:#59A843;}
	.st-matura1{fill:#3F5161;}
</style>
<polyline class="st-matura0" points="71.9,270.9 71.9,129.1 143,200.3 269.8,73.5 288.2,92.4 288.2,0 196.8,0 215.7,18.9 143.3,89.8 
	71.9,18.4 0,18.4 0,270.9 "/>
<polygon class="st-matura0" points="288.2,127 288.2,270.9 215.7,270.9 215.7,198.9 "/>
<g>
	<path class="st-matura1" d="M531.4,56c-4.3-4.3-9.8-6.5-16.4-6.5c-6.6,0-12.1,2.2-16.4,6.7c-4.3,4.4-6.5,10-6.5,16.6v0.5
		c-2.2-2.1-4.7-4.1-7.4-6.2c-6.7-5.1-14.7-9.3-23.8-12.6c-9.1-3.3-19.2-5-30.1-5c-17,0-32.5,4.5-46.4,13.5
		c-14,9-25.1,21.5-33.3,37.3c-8.3,15.9-12.4,34.2-12.4,55c0,20.6,4.1,38.8,12.4,54.6c8.3,15.9,19.5,28.3,33.7,37.3
		c14.2,9,30.1,13.5,47.6,13.5c9.6,0,18.6-1.6,26.8-4.8c8.3-3.2,15.4-7,21.5-11.6c4.5-3.4,8.3-6.8,11.4-10.3
		c0.1,6.4,2.2,11.8,6.5,16.1c4.3,4.5,9.8,6.7,16.4,6.7c6.6,0,12-2.2,16.4-6.7c4.3-4.4,6.5-10,6.5-16.6V72.8
		C537.8,65.9,535.7,60.3,531.4,56z M487,187.7c-4.7,9.6-11.2,17.3-19.6,22.8c-8.4,5.6-18.2,8.4-29.3,8.4c-10.9,0-20.6-2.8-28.9-8.4
		c-8.4-5.6-14.9-13.2-19.6-22.8c-4.7-9.6-7-20.4-7-32.4c0-12.2,2.4-23.1,7-32.7c4.7-9.6,11.2-17.3,19.6-22.8
		c8.4-5.6,18-8.4,28.9-8.4c11.2,0,20.9,2.8,29.3,8.4c8.4,5.6,14.9,13.2,19.6,22.8c4.7,9.7,7,20.6,7,32.7
		C494.1,167.3,491.7,178.1,487,187.7z"/>
	<path class="st-matura1" d="M695.3,219c2.9,3.3,4.4,7.9,4.4,13.7c0,7.1-3.9,12.9-11.6,17.5c-7.8,4.6-16.1,6.9-24.9,6.9
		c-5.3,0-11.2-0.4-17.7-1.3c-6.5-0.9-12.6-3-18.3-6.5c-5.7-3.4-10.5-8.7-14.3-15.8c-3.8-7.1-5.7-16.9-5.7-29.3V99h-17.5
		c-6.1,0-11.2-2-15.2-6.1s-6.1-9.1-6.1-15.2c0-5.8,2-10.7,6.1-14.7c4.1-3.9,9.1-5.9,15.2-5.9h17.5V32.8c0-6.6,2.2-12.1,6.7-16.6
		s10-6.7,16.6-6.7c6.6,0,12,2.2,16.2,6.7s6.3,10,6.3,16.6v24.4h27c6.1,0,11.2,2,15.2,6.1s6.1,9.1,6.1,15.2c0,5.8-2,10.7-6.1,14.7
		C691,97.1,686,99,679.9,99h-27v103.2c0,3.6,0.7,6.5,2.1,8.8c1.4,2.3,3.3,3.9,5.7,5c2.4,1,5,1.5,7.8,1.5c3,0,5.8-0.6,8.4-1.7
		c2.5-1.1,5.5-1.7,8.8-1.7C689.1,214,692.4,215.7,695.3,219z"/>
	<path class="st-matura1" d="M894.3,53.3c6.6,0,12.1,2.2,16.4,6.7c4.3,4.4,6.5,10,6.5,16.6v96.7c0,26.9-7.5,48.2-22.5,64
		c-15,15.7-36.6,23.6-64.7,23.6c-28.2,0-49.7-7.9-64.5-23.6c-14.9-15.7-22.3-37.1-22.3-64V76.6c0-6.6,2.2-12.1,6.5-16.6
		c4.3-4.4,9.8-6.7,16.4-6.7c6.6,0,12.1,2.2,16.4,6.7c4.3,4.4,6.5,10,6.5,16.6v96.7c0,15.5,3.4,27,10.3,34.5
		c6.9,7.5,17.1,11.2,30.8,11.2c14,0,24.4-3.7,31.2-11.2c6.9-7.5,10.3-19,10.3-34.5V76.6c0-6.6,2.2-12.1,6.5-16.6
		C882.2,55.6,887.7,53.3,894.3,53.3z"/>
	<path class="st-matura1" d="M1099.5,71.2c0,8.4-2.2,14.4-6.5,18.1c-4.3,3.7-9,5.5-14.1,5.5c-4.8,0-9.2-0.9-13.1-2.7
		c-3.9-1.8-8.4-2.7-13.5-2.7c-4.6,0-9.2,1.1-13.9,3.2c-4.7,2.2-9,5.5-12.9,10.1c-3.9,4.6-7.1,10.2-9.5,16.9
		c-2.4,6.7-3.6,14.7-3.6,23.8v90.3c0,6.6-2.2,12.1-6.5,16.6c-4.3,4.5-9.8,6.7-16.4,6.7c-6.6,0-12.1-2.2-16.4-6.7
		c-4.3-4.4-6.5-10-6.5-16.6V76.6c0-6.6,2.2-12.1,6.5-16.6c4.3-4.4,9.8-6.7,16.4-6.7c6.6,0,12.1,2.2,16.4,6.7
		c4.3,4.4,6.5,10,6.5,16.6v5.1c2.3-4,5-7.7,8.2-11c4.4-4.7,9.5-8.6,15-11.8c5.6-3.2,11.5-5.5,17.9-7c6.4-1.5,12.7-2.3,19-2.3
		c7.6,0,14,2.2,19.2,6.5C1096.9,60.3,1099.5,65.4,1099.5,71.2z"/>
	<path class="st-matura1" d="M1308.5,56c-4.3-4.3-9.8-6.5-16.4-6.5c-6.6,0-12.1,2.2-16.4,6.7c-4.3,4.4-6.5,10-6.5,16.6v0.5
		c-2.2-2.1-4.7-4.1-7.4-6.2c-6.7-5.1-14.7-9.3-23.8-12.6s-19.2-5-30.1-5c-17,0-32.5,4.5-46.5,13.5c-14,9-25.1,21.5-33.3,37.3
		c-8.3,15.9-12.4,34.2-12.4,55c0,20.6,4.1,38.8,12.4,54.6c8.2,15.9,19.5,28.3,33.7,37.3c14.2,9,30.1,13.5,47.6,13.5
		c9.6,0,18.6-1.6,26.8-4.8c8.3-3.2,15.4-7,21.5-11.6c4.5-3.4,8.3-6.8,11.4-10.3c0.1,6.4,2.2,11.8,6.5,16.1c4.3,4.5,9.8,6.7,16.4,6.7
		c6.6,0,12.1-2.2,16.4-6.7c4.3-4.4,6.5-10,6.5-16.6V72.8C1315,65.9,1312.9,60.3,1308.5,56z M1264.2,187.7
		c-4.7,9.6-11.2,17.3-19.6,22.8c-8.4,5.6-18.2,8.4-29.3,8.4c-10.9,0-20.6-2.8-28.9-8.4c-8.4-5.6-14.9-13.2-19.6-22.8
		c-4.7-9.6-7-20.4-7-32.4c0-12.2,2.3-23.1,7-32.7c4.7-9.6,11.2-17.3,19.6-22.8c8.4-5.6,18-8.4,28.9-8.4c11.2,0,20.9,2.8,29.3,8.4
		c8.4,5.6,14.9,13.2,19.6,22.8c4.7,9.7,7,20.6,7,32.7C1271.2,167.3,1268.9,178.1,1264.2,187.7z"/>
</g>
</svg>
