<?xml version="1.0" encoding="utf-8"?>
<!-- Generator: Adobe Illustrator 24.3.0, SVG Export Plug-In . SVG Version: 6.00 Build 0)  -->
<svg version="1.1" id="Layer_1" xmlns="http://www.w3.org/2000/svg" xmlns:xlink="http://www.w3.org/1999/xlink" x="0px" y="0px"
	 viewBox="0 0 1315 270.9" style="enable-background:new 0 0 1315 270.9;" xml:space="preserve">
<style type="text/css">
	.stmatura-white0{fill:#59A843;}
	.stmatura-white1{fill:#FFFFFF;}
</style>
<polyline class="stmatura-white0" points="71.9,270.9 71.9,129.1 143,200.3 269.8,73.5 288.2,92.4 288.2,0 196.8,0 215.7,18.9 143.3,89.8 
	71.9,18.4 0,18.4 0,270.9 "/>
<polygon class="stmatura-white0" points="288.2,127 288.2,270.9 215.7,270.9 215.7,198.9 "/>
<g>
	<path class="stmatura-white1" d="M515,49.5c6.6,0,12.1,2.2,16.4,6.5c4.3,4.3,6.5,9.9,6.5,16.8v161.1c0,6.6-2.2,12.1-6.5,16.6
		c-4.3,4.4-9.8,6.7-16.4,6.7c-6.6,0-12.1-2.2-16.4-6.7c-4.3-4.4-6.5-10-6.5-16.6v-18.7l8.4,3.4c0,3.3-1.8,7.3-5.3,12
		c-3.6,4.7-8.4,9.3-14.5,13.9c-6.1,4.6-13.3,8.4-21.5,11.6c-8.3,3.2-17.2,4.8-26.8,4.8c-17.5,0-33.4-4.5-47.6-13.5
		c-14.2-9-25.5-21.4-33.7-37.3c-8.3-15.9-12.4-34.1-12.4-54.6c0-20.8,4.1-39.2,12.4-55c8.2-15.9,19.4-28.3,33.3-37.3
		c14-9,29.4-13.5,46.5-13.5c10.9,0,20.9,1.7,30.1,5c9.1,3.3,17.1,7.5,23.8,12.6c6.7,5.1,11.9,10.2,15.6,15.4
		c3.7,5.2,5.5,9.6,5.5,13.1l-13.7,5V72.7c0-6.6,2.2-12.1,6.5-16.6C502.9,51.7,508.4,49.5,515,49.5z M438.1,219
		c11.2,0,20.9-2.8,29.3-8.4c8.4-5.6,14.9-13.2,19.6-22.8c4.7-9.6,7-20.4,7-32.4c0-12.2-2.4-23.1-7-32.7
		c-4.7-9.6-11.2-17.3-19.6-22.8c-8.4-5.6-18.2-8.4-29.3-8.4c-10.9,0-20.6,2.8-28.9,8.4c-8.4,5.6-14.9,13.2-19.6,22.8
		c-4.7,9.7-7,20.6-7,32.7c0,11.9,2.3,22.7,7,32.4c4.7,9.7,11.2,17.3,19.6,22.8C417.5,216.2,427.2,219,438.1,219z"/>
	<path class="stmatura-white1" d="M589.6,57.1h90.2c6.1,0,11.2,2,15.2,6.1c4.1,4.1,6.1,9.1,6.1,15.2c0,5.8-2,10.7-6.1,14.7
		C691,97.1,686,99,679.9,99h-90.2c-6.1,0-11.2-2-15.2-6.1c-4.1-4.1-6.1-9.1-6.1-15.2c0-5.8,2-10.7,6.1-14.7
		C578.5,59.1,583.5,57.1,589.6,57.1z M630.4,9.5c6.6,0,12,2.2,16.2,6.7c4.2,4.4,6.3,10,6.3,16.6v169.4c0,3.6,0.7,6.5,2.1,8.8
		c1.4,2.3,3.3,3.9,5.7,4.9c2.4,1,5,1.5,7.8,1.5c3,0,5.8-0.6,8.4-1.7c2.5-1.1,5.5-1.7,8.8-1.7c3.6,0,6.8,1.7,9.7,4.9
		c2.9,3.3,4.4,7.9,4.4,13.7c0,7.1-3.9,12.9-11.6,17.5c-7.7,4.6-16.1,6.9-24.9,6.9c-5.3,0-11.2-0.4-17.7-1.3
		c-6.5-0.9-12.6-3-18.3-6.5c-5.7-3.4-10.5-8.7-14.3-15.8c-3.8-7.1-5.7-16.9-5.7-29.3V32.8c0-6.6,2.2-12.1,6.7-16.6
		C618.3,11.8,623.8,9.5,630.4,9.5z"/>
	<path class="stmatura-white1" d="M894.3,53.3c6.6,0,12.1,2.2,16.4,6.7c4.3,4.4,6.5,10,6.5,16.6v96.7c0,26.9-7.5,48.2-22.5,64
		c-15,15.7-36.6,23.6-64.7,23.6c-28.2,0-49.7-7.9-64.5-23.6c-14.9-15.7-22.3-37.1-22.3-64V76.6c0-6.6,2.2-12.1,6.5-16.6
		c4.3-4.4,9.8-6.7,16.4-6.7c6.6,0,12.1,2.2,16.4,6.7c4.3,4.4,6.5,10,6.5,16.6v96.7c0,15.5,3.4,27,10.3,34.5
		c6.9,7.5,17.1,11.2,30.8,11.2c14,0,24.4-3.7,31.2-11.2c6.9-7.5,10.3-19,10.3-34.5V76.6c0-6.6,2.2-12.1,6.5-16.6
		C882.2,55.6,887.7,53.3,894.3,53.3z"/>
	<path class="stmatura-white1" d="M989.5,257c-6.6,0-12.1-2.2-16.4-6.7c-4.3-4.4-6.5-10-6.5-16.6V76.6c0-6.6,2.2-12.1,6.5-16.6
		c4.3-4.4,9.8-6.7,16.4-6.7c6.6,0,12.1,2.2,16.4,6.7c4.3,4.4,6.5,10,6.5,16.6v35.8l-2.7-25.5c2.8-6.1,6.4-11.5,10.9-16.2
		c4.4-4.7,9.5-8.6,15-11.8c5.6-3.2,11.5-5.5,17.9-7c6.3-1.5,12.7-2.3,19-2.3c7.6,0,14,2.2,19.2,6.5c5.2,4.3,7.8,9.4,7.8,15.2
		c0,8.4-2.2,14.4-6.5,18.1c-4.3,3.7-9,5.5-14.1,5.5c-4.8,0-9.2-0.9-13.1-2.7c-3.9-1.8-8.4-2.7-13.5-2.7c-4.6,0-9.2,1.1-13.9,3.2
		c-4.7,2.2-9,5.5-12.9,10.1c-3.9,4.6-7.1,10.2-9.5,16.9c-2.4,6.7-3.6,14.7-3.6,23.8v90.2c0,6.6-2.2,12.1-6.5,16.6
		C1001.5,254.8,996,257,989.5,257z"/>
	<path class="stmatura-white1" d="M1292.2,49.5c6.6,0,12.1,2.2,16.4,6.5c4.3,4.3,6.5,9.9,6.5,16.8v161.1c0,6.6-2.2,12.1-6.5,16.6
		c-4.3,4.4-9.8,6.7-16.4,6.7c-6.6,0-12.1-2.2-16.4-6.7c-4.3-4.4-6.5-10-6.5-16.6v-18.7l8.4,3.4c0,3.3-1.8,7.3-5.3,12
		c-3.6,4.7-8.4,9.3-14.5,13.9c-6.1,4.6-13.3,8.4-21.5,11.6c-8.3,3.2-17.2,4.8-26.8,4.8c-17.5,0-33.4-4.5-47.6-13.5
		c-14.2-9-25.5-21.4-33.7-37.3c-8.3-15.9-12.4-34.1-12.4-54.6c0-20.8,4.1-39.2,12.4-55c8.2-15.9,19.4-28.3,33.3-37.3
		c14-9,29.4-13.5,46.5-13.5c10.9,0,20.9,1.7,30.1,5c9.1,3.3,17.1,7.5,23.8,12.6c6.7,5.1,11.9,10.2,15.6,15.4
		c3.7,5.2,5.5,9.6,5.5,13.1l-13.7,5V72.7c0-6.6,2.2-12.1,6.5-16.6C1280.1,51.7,1285.6,49.5,1292.2,49.5z M1215.3,219
		c11.2,0,20.9-2.8,29.3-8.4c8.4-5.6,14.9-13.2,19.6-22.8c4.7-9.6,7-20.4,7-32.4c0-12.2-2.4-23.1-7-32.7
		c-4.7-9.6-11.2-17.3-19.6-22.8c-8.4-5.6-18.2-8.4-29.3-8.4c-10.9,0-20.6,2.8-28.9,8.4c-8.4,5.6-14.9,13.2-19.6,22.8
		c-4.7,9.7-7,20.6-7,32.7c0,11.9,2.3,22.7,7,32.4c4.7,9.7,11.2,17.3,19.6,22.8C1194.7,216.2,1204.3,219,1215.3,219z"/>
</g>
</svg>
