<?xml version="1.0" encoding="utf-8"?>
<!-- Generator: Adobe Illustrator 23.0.3, SVG Export Plug-In . SVG Version: 6.00 Build 0)  -->
<svg version="1.1" id="Layer_1" xmlns="http://www.w3.org/2000/svg" xmlns:xlink="http://www.w3.org/1999/xlink" x="0px" y="0px"
	 viewBox="0 0 100 100" style="enable-background:new 0 0 100 100;" xml:space="preserve">
<style type="text/css">
</style>
<g>
	<g>
		<path d="M71.5,22C71.1,10.9,65.8,5.5,61.4,2.9C58,1,54.1,0,50.1,0h-0.3C48,0,43.3,0.3,38.6,2.9
			c-4.4,2.6-9.8,7.9-10.3,19.1c-0.2,2.8-1,17.2,6.5,25.8c3.7,4.2,8.6,6.4,14.7,6.5h0.6c6.1-0.1,11.1-2.3,14.8-6.4
			C72.5,39.3,71.7,24.9,71.5,22z M34.1,22.5L34.1,22.5l0.3,0v-0.1C35.2,7.7,45.3,6.2,49.7,6.2h0.3c6.7,0.1,14.7,3,15.4,15.9v0.3
			c0.2,2.4,0.8,14.5-5.1,21.2l0,0c-2.5,2.9-5.9,4.3-10.4,4.3h-0.2c-4.5,0-7.7-1.4-10.3-4.3c-6-6.7-5.1-19.6-5-21.1L34.1,22.5z"/>
	</g>
	<g>
		<path d="M92.5,78.5v0.7c0,3-0.2,7.1-0.9,9.3c-0.2,0.6-0.5,1-1,1.5l-0.2,0.2c-3.8,2.3-18,9.8-40.2,9.8
			c-24.1,0-39-9-40.4-9.9l0,0c-0.6-0.4-1-1-1.1-1.6c-0.6-1.7-1-5.3-1-9.3v-0.6c0.1-4.2,0.4-13.9,9.5-17l0.3-0.1
			c8.6-2.2,16.1-7,16.9-7.7c1.4-1,3.3-0.6,4.4,0.7c1,1.4,0.7,3.3-0.6,4.4l-0.3,0.2h-0.1l-0.2,0.1c-6.2,4-12.5,6.8-18.6,8.4
			c-4.3,1.5-5,6.3-5.1,11.2v0.5c-0.1,1.6,0.1,4.4,0.4,6.2c2.2,1.2,15.4,8.3,35.9,8.3c18.5,0,31.1-5.7,35.9-8.2
			c0.3-1.6,0.3-4.3,0.3-6.1v-0.5c-0.2-5.2-0.7-9.7-5.3-11.3c-10.6-2.8-18.8-8.6-18.9-8.6c-0.8-0.6-1.2-1.3-1.4-2.1
			c-0.1-0.8,0.1-1.6,0.6-2.3c0.6-0.8,1.3-1.2,2.1-1.3c0.9-0.1,1.7,0,2.3,0.5l0.1,0c0.5,0.4,7.8,5.3,16.8,7.6l0.5,0.1
			C92.1,64.8,92.3,74.4,92.5,78.5z"/>
	</g>
</g>
</svg>
