<?xml version="1.0" encoding="utf-8"?>
<!-- Generator: Adobe Illustrator 23.0.3, SVG Export Plug-In . SVG Version: 6.00 Build 0)  -->
<svg version="1.1" id="Layer_1" xmlns="http://www.w3.org/2000/svg" xmlns:xlink="http://www.w3.org/1999/xlink" x="0px" y="0px"
	 viewBox="0 0 100 100" style="enable-background:new 0 0 100 100;" xml:space="preserve">
<style type="text/css">
</style>
<g>
	<g>
		<path d="M99.7,85.7c-0.4-2.1-2.5-3.5-4.6-3c-2.1,0.4-3.5,2.5-3,4.6c0.3,1.2,0,2.5-0.8,3.4c-0.5,0.6-1.5,1.5-3.1,1.5
			H11.9c-1.7,0-2.7-0.9-3.1-1.5c-0.8-1-1.1-2.2-0.8-3.4C12,67.8,29.1,53.6,49,53.1c0.3,0,0.7,0,1,0c0.3,0,0.7,0,1,0
			c14,0.3,26.9,7.4,34.7,19.1c1.2,1.8,3.6,2.3,5.4,1.1c1.8-1.2,2.3-3.6,1.1-5.4c-6.4-9.6-15.7-16.5-26.3-20
			c6.5-4.8,10.7-12.6,10.7-21.3C76.6,11.9,64.6,0,50,0S23.4,11.9,23.4,26.6c0,8.7,4.2,16.4,10.7,21.3c-5.9,2-11.5,5-16.4,9
			C8.8,64.2,2.6,74.4,0.3,85.7c-0.7,3.5,0.1,7.2,2.4,9.9c2.3,2.8,5.6,4.4,9.2,4.4h76.3c3.6,0,6.9-1.6,9.2-4.4
			C99.6,92.8,100.5,89.2,99.7,85.7z M31.2,26.6c0-10.3,8.4-18.8,18.7-18.8s18.8,8.4,18.8,18.8c0,10-7.9,18.2-17.8,18.7
			c-0.3,0-0.6,0-0.9,0c-0.3,0-0.6,0-0.9,0C39.2,44.8,31.2,36.6,31.2,26.6z"/>
	</g>
</g>
</svg>
