<?xml version="1.0" encoding="utf-8"?>
<!-- Generator: Adobe Illustrator 23.0.3, SVG Export Plug-In . SVG Version: 6.00 Build 0)  -->
<svg version="1.1" id="Layer_1" xmlns="http://www.w3.org/2000/svg" xmlns:xlink="http://www.w3.org/1999/xlink" x="0px" y="0px"
	 viewBox="0 0 100 100" style="enable-background:new 0 0 100 100;" xml:space="preserve">
<style type="text/css">
	.st0-visi{fill:#0572BA;}
</style>
<path id="Eye" class="st0-visi" d="M50,15.9C27.9,15.9,8.1,29.4,0,50c10.8,27.6,42,41.2,69.6,30.4C83.5,74.9,94.5,63.9,100,50
	C91.9,29.4,72.1,15.9,50,15.9z M50,72.7c-12.6,0-22.7-10.2-22.7-22.7S37.4,27.3,50,27.3S72.7,37.4,72.7,50
	C72.7,62.5,62.5,72.7,50,72.7z M50,36.4c-7.5,0-13.6,6.1-13.6,13.6S42.5,63.6,50,63.6S63.6,57.5,63.6,50l0,0
	C63.6,42.5,57.6,36.4,50,36.4C50,36.4,50,36.4,50,36.4z"/>
</svg>
