<?xml version="1.0" encoding="utf-8"?>
<!-- Generator: Adobe Illustrator 23.0.3, SVG Export Plug-In . SVG Version: 6.00 Build 0)  -->
<svg version="1.1" id="Layer_1" xmlns="http://www.w3.org/2000/svg" xmlns:xlink="http://www.w3.org/1999/xlink" x="0px" y="0px"
	 viewBox="0 0 100 100" style="enable-background:new 0 0 100 100;" xml:space="preserve">
<style type="text/css">
	.st0-visi-off{fill:#A2B0B9;}
</style>
<path id="Path_7807" class="st0-visi-off" d="M50,25c12.6,0,22.7,10.2,22.7,22.7c0,2.9-0.6,5.7-1.6,8.3l13.3,13.3
	c6.9-5.8,12.3-13.2,15.6-21.6c-8.1-20.6-27.9-34.1-50-34.1c-6.2,0-12.3,1.1-18.1,3.2l9.8,9.8C44.3,25.5,47.2,25,50,25z M4.5,12.6
	l10.4,10.4L17,25C9.4,30.9,3.5,38.8,0,47.7C10.8,75.4,42,89,69.7,78.1c0.1,0,0.2-0.1,0.3-0.1l1.9,1.9l13.3,13.3l5.8-5.8L10.3,6.8
	L4.5,12.6z M29.7,37.7l7,7c-0.2,1-0.4,2-0.4,3c0,7.5,6.1,13.6,13.6,13.6c0,0,0,0,0,0c1,0,2-0.1,3-0.4l7,7
	c-11.1,5.6-24.7,1.2-30.3-9.9C26.4,51.7,26.4,44.1,29.7,37.7z M49.3,34.2l14.3,14.3l0.1-0.8c0-7.5-6.1-13.6-13.6-13.6L49.3,34.2z"/>
</svg>
